# xmcd
#
# Track frame offsets: 
#        150
#        12578
#        26048
#        42684
#        55806
#        64295
#        75048
#        88603
#        99049
#        110925
#        123868
#        134708
#
# Disc length: 1948 seconds
#
# Revision: 0
# Processed by: cddbd v1.5.2PL0 Copyright (c) Steve Scherf et al.
# Submitted via: ExactAudioCopy v0.99pb5
#
DISCID=a0079a0c
DTITLE=Slim Whitman - Twhilight on the Trail
DYEAR=2010
DGENRE=Other
TTITLE0=Back in the Saddle Again
TTITLE1=Blue Shadows on the Trail
TTITLE2=Boots and Saddles
TTITLE3=Ridin' Down the Arizona Trail
TTITLE4=Happy Rovin' Cowboy
TTITLE5=River of No Return
TTITLE6=My Little Buckaroo
TTITLE7=Ragtime Cowboy Joe
TTITLE8=Twilight on the Trail
TTITLE9=Empty Saddles in Old Coral
TTITLE10=Happy Trails
TTITLE11=Golden Lariat
EXTD=
EXTT0=
EXTT1=
EXTT2=
EXTT3=
EXTT4=
EXTT5=
EXTT6=
EXTT7=
EXTT8=
EXTT9=
EXTT10=
EXTT11=
PLAYORDER=
